<svg id="play-button" xmlns="http://www.w3.org/2000/svg" width="30.051" height="30.047" viewBox="0 0 30.051 30.047">
  <path id="Path_80" data-name="Path 80" d="M19.982,14.438,13.742,9.9a.752.752,0,0,0-1.2.607v9.069a.75.75,0,0,0,.411.671.758.758,0,0,0,.342.081.748.748,0,0,0,.442-.146l6.24-4.532a.746.746,0,0,0,0-1.214Z" transform="translate(0 -0.002)" fill="#fff"/>
  <path id="Path_81" data-name="Path 81" d="M15.026,0A15.023,15.023,0,1,0,30.051,15.028,15.024,15.024,0,0,0,15.026,0Zm0,27.54A12.516,12.516,0,1,1,27.54,15.028,12.514,12.514,0,0,1,15.026,27.542Z" transform="translate(0 -0.002)" fill="#fff"/>
</svg>
